# xmcd CD database file
#
# Track frame offsets:
#	150
#	22115
#	53172
#	78415
#	99540
#	112597
#	132720
#	156762
#	178177
#	215392
#	234172
#
# Disc length: 3427 seconds
#
# Revision: 1
# Processed by: cddbd v1.5.2PL0 Copyright (c) Steve Scherf et al.
# Submitted via: CDex 1.70beta2
#
DISCID=8b0d610b
DTITLE=Varios - Jazz en la Costa CD1
DYEAR=1998
DGENRE=Jazz
TTITLE0=Teresa Lujan_They cna´t take that away from me
TTITLE1=Peckos Beck and Tito POyatos Band_God bless the child
TTITLE2=Nardy Castellini_Joshua
TTITLE3=Cahía Combé_So danço samba
TTITLE4=Nicolás Medina_Córdoba
TTITLE5=Los Lagartos_From theTime Mist of time
TTITLE6=Arturo Cid Quartet_Straight no chaser
TTITLE7=Kalimba_Namorada
TTITLE8=Cu-Bop_El vuelo de Ícaro
TTITLE9=La Estación_Open the window
TTITLE10=La Big Band de Granada_Spain
EXTD=YEAR: 1998
EXTT0=
EXTT1=
EXTT2=
EXTT3=
EXTT4=
EXTT5=
EXTT6=
EXTT7=
EXTT8=
EXTT9=
EXTT10=
PLAYORDER=
